<?xml version="1.0" encoding="UTF-8" standalone="no"?>
<!-- Created with Inkscape (http://www.inkscape.org/) -->

<svg
   xmlns:dc="http://purl.org/dc/elements/1.1/"
   xmlns:cc="http://creativecommons.org/ns#"
   xmlns:rdf="http://www.w3.org/1999/02/22-rdf-syntax-ns#"
   xmlns:svg="http://www.w3.org/2000/svg"
   xmlns="http://www.w3.org/2000/svg"
   xmlns:sodipodi="http://sodipodi.sourceforge.net/DTD/sodipodi-0.dtd"
   xmlns:inkscape="http://www.inkscape.org/namespaces/inkscape"
   width="522.95087"
   height="494.26315"
   id="svg2"
   version="1.1"
   inkscape:version="0.48.5 r10040"
   sodipodi:docname="terra.svg"
   inkscape:export-filename="/home/jon/Projects/terra/assets/terra.png"
   inkscape:export-xdpi="90"
   inkscape:export-ydpi="90">
  <defs
     id="defs4">
    <filter
       inkscape:collect="always"
       id="filter3777"
       color-interpolation-filters="sRGB">
      <feGaussianBlur
         inkscape:collect="always"
         stdDeviation="1.6779635"
         id="feGaussianBlur3779" />
    </filter>
    <filter
       inkscape:collect="always"
       id="filter3856"
       color-interpolation-filters="sRGB">
      <feGaussianBlur
         inkscape:collect="always"
         stdDeviation="1.7713195"
         id="feGaussianBlur3858" />
    </filter>
  </defs>
  <sodipodi:namedview
     id="base"
     pagecolor="#ffffff"
     bordercolor="#666666"
     borderopacity="1.0"
     inkscape:pageopacity="0.0"
     inkscape:pageshadow="2"
     inkscape:zoom="0.49497475"
     inkscape:cx="-68.305039"
     inkscape:cy="211.14427"
     inkscape:document-units="px"
     inkscape:current-layer="layer1"
     showgrid="false"
     fit-margin-top="0"
     fit-margin-left="0"
     fit-margin-right="0"
     fit-margin-bottom="0"
     inkscape:window-width="1520"
     inkscape:window-height="981"
     inkscape:window-x="0"
     inkscape:window-y="27"
     inkscape:window-maximized="0" />
  <metadata
     id="metadata7">
    <rdf:RDF>
      <cc:Work
         rdf:about="">
        <dc:format>image/svg+xml</dc:format>
        <dc:type
           rdf:resource="http://purl.org/dc/dcmitype/StillImage" />
        <dc:title></dc:title>
      </cc:Work>
    </rdf:RDF>
  </metadata>
  <g
     inkscape:label="Layer 1"
     inkscape:groupmode="layer"
     id="layer1"
     transform="translate(-97.303264,-284.47687)">
    <path
       sodipodi:type="arc"
       style="fill:#1ba2e7;fill-opacity:1;fill-rule:evenodd;stroke:none"
       id="path2985"
       sodipodi:cx="317.14285"
       sodipodi:cy="543.79077"
       sodipodi:rx="240"
       sodipodi:ry="240"
       d="m 557.14285,543.79077 a 240,240 0 1 1 -479.999997,0 240,240 0 1 1 479.999997,0 z"
       transform="matrix(0.82228916,0,0,0.82228916,100.30691,90.319395)" />
    <path
       style="fill:#66ff00;stroke:#ffeeaa;stroke-width:15.39999962;stroke-linecap:round;stroke-linejoin:miter;stroke-miterlimit:4;stroke-opacity:1;stroke-dasharray:none;filter:url(#filter3777)"
       d="m 197.9899,352.32647 c 0,0 -119.198001,84.85281 -77.78175,252.53814 41.41626,167.68532 101.01526,60.60915 101.01526,60.60915 0,0 30.30457,-67.68022 -27.27412,-95.96449 -57.5787,-28.28428 -34.34519,-136.3706 27.27412,-139.40106 61.6193,-3.03045 14.14213,165.66502 84.85281,104.04572 70.71068,-61.61931 89.90358,-39.39595 56.56854,-76.7716 -33.33503,-37.37564 -58.58884,-63.63961 -55.55839,-114.14723 3.03046,-50.50763 0,-57.5787 -42.4264,-38.3858 -42.42641,19.1929 -66.67007,47.47717 -66.67007,47.47717 z"
       id="path3755"
       inkscape:connector-curvature="0"
       mask="none"
       transform="matrix(0.79022801,-0.22737446,0.22737446,0.79022801,-48.633306,196.12174)" />
    <path
       inkscape:connector-curvature="0"
       id="path3881"
       d="m 504.06612,346.26556 c 7.07107,0 157.58379,91.92388 110.10662,225.26401 -47.47716,133.34014 -96.97464,179.80716 -96.97464,179.80716 0,0 -67.68022,66.67006 -102.02541,30.30457 -34.34518,-36.36549 -26.26396,-38.38579 -12.12183,-65.65991 14.14214,-27.27412 91.92388,55.55839 102.02541,19.1929 10.10153,-36.3655 19.1929,-143.44167 -33.33503,-117.1777 -52.52794,26.26397 -100.00511,26.26397 -60.60916,-8.08122 39.39595,-34.34519 163.64472,18.18275 134.35029,-46.46702 -29.29442,-64.64976 -107.07617,-46.46701 -79.80205,-111.11678 27.27412,-64.64976 9.09137,-71.72083 -13.13198,-57.57869 -22.22336,14.14213 -72.73099,-141.42136 51.51778,-48.48732 z"
       style="fill:#66ff00;fill-opacity:1;stroke:#ffeeaa;stroke-width:14.69999981;stroke-linecap:butt;stroke-linejoin:miter;stroke-miterlimit:4;stroke-opacity:1;stroke-dasharray:none;filter:url(#filter3856)"
       transform="matrix(0.84904094,-0.24429688,0.22456787,0.78047382,-86.518157,200.73251)" />
  </g>
</svg>
